<?xml version="1.0" standalone="no"?>
<!DOCTYPE svg PUBLIC "-//W3C//DTD SVG 20010904//EN"
 "http://www.w3.org/TR/2001/REC-SVG-20010904/DTD/svg10.dtd">
<svg version="1.0" xmlns="http://www.w3.org/2000/svg"
 width="1080.000000pt" height="1080.000000pt" viewBox="0 0 1080.000000 1080.000000"
 preserveAspectRatio="xMidYMid meet">
<metadata>
Created by potrace 1.16, written by Peter Selinger 2001-2019
</metadata>
<g transform="translate(0.000000,1080.000000) scale(0.100000,-0.100000)"
fill="#000000" stroke="none">
<path d="M2622 8433 c3 -555 3 -558 26 -615 67 -165 214 -291 372 -318 43 -7
237 -10 580 -8 l515 3 0 525 c0 574 -1 584 -58 695 -39 74 -134 170 -206 209
-118 63 -150 66 -718 66 l-514 0 3 -557z"/>
<path d="M4640 8240 l0 -750 553 0 c303 -1 598 -5 655 -10 261 -24 520 -175
670 -393 75 -109 102 -168 143 -312 27 -92 41 -532 18 -546 -8 -5 -470 -9
-1026 -9 l-1013 0 0 -528 c0 -484 2 -532 19 -592 10 -36 28 -84 40 -107 33
-65 133 -166 199 -201 119 -64 106 -63 872 -62 382 0 746 -3 809 -6 l114 -7
-6 -81 c-28 -389 -274 -713 -635 -837 -122 -42 -214 -49 -652 -49 -430 0 -511
6 -635 46 -291 95 -507 313 -613 620 l-27 79 -5 1230 -5 1230 -747 3 -748 2 0
-2355 0 -2356 1668 3 c1529 3 1677 5 1787 21 178 26 438 92 540 137 11 5 54
23 95 40 503 210 954 630 1206 1125 58 114 138 303 155 369 4 17 20 74 34 126
14 52 36 147 48 210 22 115 22 116 22 1345 l-1 1230 -26 125 c-47 221 -57 257
-112 408 -176 485 -507 903 -942 1192 -335 221 -671 342 -1089 390 -150 17
-240 20 -767 20 l-598 0 0 -750z"/>
</g>
</svg>
